<svg width="16" height="16" viewBox="0 0 16 16" fill="none" xmlns="http://www.w3.org/2000/svg">
<path d="M7.72862 5.00336C7.94055 4.97987 8.23306 5.08152 8.37583 5.24596C8.41973 5.29653 8.53778 5.48442 8.46339 5.54367C8.42785 5.57198 8.3392 5.50229 8.2999 5.4979C8.04364 5.44917 7.77783 5.61073 7.61828 5.80711C7.56544 5.87227 7.4944 5.99127 7.47412 6.07363C7.50341 6.0942 7.61275 6.04501 7.64938 6.03359C7.74189 6.00576 7.83647 5.98581 7.93216 5.97394C8.9297 5.85187 9.75546 6.36756 10.1932 7.28216C10.2594 7.42043 10.3169 7.56295 10.3653 7.70881C10.3878 7.77729 10.4318 7.9373 10.4582 7.99777C10.5381 8.18075 10.6564 8.39275 10.7873 8.54077C10.8424 8.60118 10.9119 8.64126 10.9745 8.69113C11.0178 8.73473 11.0013 8.79381 10.9597 8.83126C10.8374 8.94143 10.7147 8.9688 10.5569 8.96521C10.6447 9.27849 10.6448 9.59713 10.5221 9.90263C10.4827 9.99122 10.4279 10.1097 10.3421 10.1584C10.3149 10.1738 10.2723 10.15 10.2682 10.1157C10.2542 9.99823 10.2427 9.90311 10.2032 9.79104C10.1517 9.91596 10.1816 9.91223 10.164 10.0482C10.1358 10.2654 10.0624 10.4969 9.928 10.6702C9.88711 10.7202 9.80953 10.8108 9.74339 10.8166C9.66294 10.8237 9.68861 10.7024 9.69379 10.6575C9.63992 10.7246 9.62698 10.7297 9.54492 10.7176C9.53575 10.7219 9.53001 10.7246 9.52283 10.7326C9.40928 10.8581 9.25305 10.9555 9.08997 10.9933C8.89308 11.0389 8.99996 10.8402 9.03253 10.7441L9.04031 10.7092C9.01937 10.6854 8.90813 10.7686 8.82365 10.7393C8.80609 10.7233 8.79762 10.6945 8.78827 10.6714C8.75728 10.6761 8.63483 10.731 8.59317 10.7466C8.49481 10.7832 8.39414 10.8128 8.29188 10.8353C7.87971 10.923 7.50308 10.9099 7.09361 10.8096C7.02626 10.7931 6.95944 10.7744 6.89327 10.7534C6.85763 10.742 6.7843 10.7156 6.75054 10.7093C6.74115 10.7405 6.73741 10.7641 6.71238 10.7831C6.63948 10.8036 6.5038 10.7449 6.43733 10.7137C6.44694 10.7454 6.48731 10.8444 6.48676 10.8651C6.48176 11.0571 6.11947 10.8336 6.06836 10.7905C5.98618 10.7212 5.9252 10.6485 5.86767 10.5706C5.86389 10.6345 5.88154 10.7538 5.8619 10.803C5.83317 10.875 5.71444 10.7958 5.67605 10.7594C5.4967 10.5897 5.44252 10.3214 5.45122 10.0798C5.45359 10.0126 5.47581 9.93602 5.46888 9.86785C5.45837 9.81582 5.42794 9.73656 5.41311 9.67891C5.37783 9.54178 5.3691 9.43743 5.36001 9.29893C5.32602 9.35774 5.30412 9.40112 5.28234 9.46662C5.26442 9.52058 5.25259 9.60662 5.22258 9.65191C5.11772 9.6842 5.0608 9.5214 5.03709 9.44215C4.8875 8.94206 5.23068 8.53368 5.35193 8.08061C5.36703 8.02417 5.38214 7.96616 5.3986 7.90941C5.45609 7.70802 5.53213 7.51275 5.62569 7.32624C5.89185 6.80252 6.28884 6.39843 6.84508 6.21971C6.68888 5.91586 6.71923 5.65469 6.93917 5.38754C7.13677 5.1475 7.42776 5.02766 7.72862 5.00336Z" fill="#150167"/>
<path d="M7.04134 6.28736C6.88402 6.12083 6.80947 5.93202 6.88567 5.70172C6.95556 5.49053 7.13065 5.32548 7.32201 5.2295C7.54006 5.12012 7.80903 5.0782 8.0425 5.15974C8.16745 5.20394 8.3001 5.28805 8.36016 5.41329C7.89732 5.27409 7.40325 5.72044 7.34311 6.18676C7.37452 6.18725 7.40569 6.18811 7.43709 6.18698L7.46493 6.19982L7.46525 6.20655L7.45192 6.21718C7.51698 6.21027 7.61024 6.15817 7.67519 6.13908C7.73542 6.12139 7.81156 6.1071 7.87362 6.09636C8.44478 5.99791 9.02962 6.15506 9.48115 6.52833C9.88553 6.86742 10.1369 7.34257 10.2932 7.84279C10.3412 7.99663 10.3699 8.08811 10.4495 8.2309C10.5693 8.44576 10.6704 8.62283 10.8832 8.75129C10.7545 8.87932 10.5794 8.87614 10.4231 8.81294C10.4079 8.85052 10.4321 8.89439 10.431 8.94464C10.5632 9.27096 10.5298 9.69769 10.3535 10.0004C10.3301 9.81741 10.3004 9.71913 10.2116 9.55459L10.178 9.53103C10.1624 9.58112 10.173 9.63053 10.1581 9.68395C10.1435 9.73643 10.0809 9.83312 10.0713 9.87405C10.0576 10.1875 9.99072 10.4475 9.78134 10.6798C9.78224 10.6056 9.77725 10.5199 9.75085 10.4498L9.73245 10.4096C9.71511 10.4391 9.67659 10.5102 9.65438 10.5294L9.6485 10.5233L9.65526 10.4825L9.65001 10.4713C9.63287 10.4564 9.61258 10.4597 9.58876 10.459C9.4524 10.6904 9.32223 10.7962 9.08078 10.892C9.14253 10.7509 9.16427 10.6455 9.19677 10.4962C9.17774 10.5062 9.15513 10.5172 9.13681 10.5278C9.04614 10.5932 9.00385 10.619 8.89763 10.6485C8.91355 10.6082 8.9206 10.5912 8.92986 10.5486C8.87689 10.5551 8.80415 10.6 8.75024 10.6194C8.63708 10.66 8.52506 10.7046 8.40863 10.7352C7.88453 10.872 7.35786 10.8236 6.84378 10.6687C6.76837 10.646 6.6924 10.6325 6.61898 10.6058C6.62596 10.6433 6.63238 10.6592 6.64541 10.6939C6.52613 10.6589 6.40797 10.5922 6.32527 10.4959C6.30086 10.4764 6.29007 10.4752 6.26018 10.4692C6.29544 10.6209 6.31829 10.6938 6.37795 10.8329C6.3719 10.831 6.36588 10.8291 6.35987 10.827C6.10873 10.7428 5.97044 10.5696 5.85364 10.3355C5.84351 10.3492 5.83365 10.3631 5.82405 10.3772C5.77322 10.4585 5.76675 10.6127 5.77062 10.7054C5.54655 10.4953 5.53853 10.2057 5.57684 9.91548C5.57777 9.90399 5.58405 9.8775 5.58663 9.86501C5.46515 9.5634 5.46197 9.34498 5.47078 9.03196C5.45693 9.04062 5.42634 9.06097 5.4131 9.06721C5.2886 9.19277 5.20124 9.33236 5.17008 9.50967C5.10187 9.3188 5.089 9.18269 5.13318 8.98014C5.19926 8.67729 5.37534 8.41948 5.45459 8.12355C5.52773 7.85046 5.61402 7.56861 5.75979 7.32593C5.78677 7.26366 5.82549 7.19913 5.86574 7.14499C6.06603 6.83299 6.3407 6.56483 6.67301 6.40721C6.76779 6.36226 6.86986 6.33308 6.97057 6.30582C7.00371 6.30139 7.01086 6.30072 7.04134 6.28736Z" fill="#AA89F6"/>
<path d="M6.40772 10.1437C6.40542 10.1224 6.40224 10.1195 6.39125 10.1017L6.38787 10.0963C6.39645 10.0922 6.39102 10.0943 6.40466 10.0913L6.44457 10.1197C6.46219 10.1453 6.47674 10.1618 6.4759 10.193C6.46112 10.2115 6.47068 10.204 6.4411 10.209C6.41501 10.2049 6.39497 10.2023 6.36866 10.2004C6.36835 10.2349 6.369 10.2767 6.36748 10.3106C6.36027 10.2727 6.36237 10.2391 6.36271 10.2006C6.33819 10.1943 6.31071 10.1827 6.28932 10.188L6.2858 10.2061C6.2798 10.1926 6.28638 10.1865 6.27351 10.1644C6.25693 10.1361 6.25692 10.1281 6.2334 10.1024C6.27426 10.1189 6.36628 10.1599 6.40558 10.1554L6.40772 10.1437Z" fill="#2D1587"/>
<path d="M8.08971 8.47337C8.17518 8.44662 8.21661 8.41884 8.3099 8.40137C8.5267 8.70039 8.7109 8.88638 9.0341 9.0628L9.02572 9.0744L9.01054 9.09524C9.02489 9.12096 9.06409 9.14291 9.08648 9.16882C9.11778 9.20503 9.1443 9.24356 9.17198 9.28267C9.19078 9.30985 9.20483 9.33051 9.22662 9.35568L9.24973 9.38143C9.24789 9.40121 9.24498 9.39765 9.2269 9.41565C9.21491 9.4257 9.1953 9.44117 9.1848 9.45165C9.17749 9.48033 9.17027 9.51361 9.15922 9.54055C9.19029 9.61086 9.11163 9.93972 9.07955 10.0211C9.05169 10.0918 9.02215 10.1516 8.98476 10.219C9.06862 10.1933 9.10303 10.177 9.17895 10.1318L9.18214 10.1428C9.17979 10.1602 9.17699 10.1865 9.17375 10.2031C9.15693 10.2264 9.14059 10.2501 9.12474 10.2742C9.13758 10.3137 9.1374 10.3145 9.16299 10.3444L9.15682 10.364C9.15544 10.4192 9.14151 10.4711 9.13813 10.5278C9.04746 10.5933 9.00517 10.6191 8.89895 10.6485C8.91486 10.6083 8.92191 10.5913 8.93118 10.5486C8.87821 10.5551 8.80546 10.6001 8.75155 10.6194C8.6384 10.66 8.52638 10.7047 8.40995 10.7352C7.88584 10.8721 7.35917 10.8236 6.84509 10.6687C6.76968 10.646 6.69371 10.6325 6.62029 10.6059C6.62727 10.6433 6.63369 10.6592 6.64673 10.694C6.52744 10.6589 6.40928 10.5923 6.32658 10.4959C6.30792 10.4072 6.29749 10.2978 6.28668 10.2061L6.2902 10.1881C6.31159 10.1827 6.33907 10.1943 6.36358 10.2006C6.36324 10.2391 6.36114 10.2727 6.36836 10.3106C6.36988 10.2767 6.36922 10.2349 6.36953 10.2004C6.39585 10.2023 6.41588 10.2049 6.44197 10.209C6.47156 10.204 6.46199 10.2115 6.47677 10.193C6.47762 10.1619 6.46306 10.1453 6.44545 10.1198L6.40553 10.0913C6.33329 9.96743 6.23331 9.72862 6.24821 9.58384L6.19434 9.53903C6.22138 9.51805 6.23 9.51017 6.2531 9.48472C6.25166 9.48171 6.24589 9.47077 6.24641 9.46751C6.25557 9.40983 6.32536 9.19839 6.34717 9.16057L6.36031 9.16078L6.36251 9.15413L6.35689 9.1429C6.35475 9.04697 6.57237 8.60115 6.61013 8.48178C6.70494 8.48039 6.7497 8.47812 6.83856 8.51349C6.9337 8.77811 7.08147 9.09871 7.33782 9.24696C7.35425 9.25646 7.35331 9.25433 7.36868 9.25159C7.38375 9.22412 7.33552 9.08298 7.32854 9.03937L7.33728 9.0268C7.40627 9.02441 7.4401 9.14928 7.52894 9.12473C7.67222 9.23634 7.84919 9.31544 8.03074 9.3178C7.99495 9.1331 7.93066 9.04866 8.0107 8.86384C8.02132 8.83933 8.03649 8.76806 8.04238 8.74212C8.06243 8.6534 8.07822 8.5637 8.08971 8.47337Z" fill="#FEEDDE"/>
<path d="M8.42598 9.12438C8.55018 9.09349 8.62289 9.09961 8.74389 9.14527C8.82703 9.23151 8.85515 9.28554 8.88183 9.40398C8.93885 9.43937 9.04972 9.57639 9.05278 9.63957C9.04812 9.65931 9.04183 9.68997 9.03502 9.70779C9.00159 9.79599 8.8546 9.95541 8.75826 9.93887L8.74987 9.92968C8.73279 9.94368 8.71638 9.95939 8.69699 9.96839C8.67654 9.96655 8.66778 9.97007 8.64814 9.97497L8.62989 9.96237C8.52151 9.97368 8.48804 9.97203 8.40352 9.90256C8.34927 9.85786 8.32656 9.78368 8.30132 9.71862L8.26453 9.7094C8.23075 9.55638 8.24144 9.44262 8.29357 9.29632C8.31654 9.2542 8.32931 9.23357 8.3572 9.19478C8.38047 9.17168 8.4034 9.1482 8.42598 9.12438Z" fill="#150167"/>
<path d="M8.47554 9.58594C8.48696 9.62934 8.4964 9.67804 8.53899 9.69943C8.60949 9.73483 8.63517 9.64371 8.64362 9.59485C8.72772 9.61406 8.78184 9.63117 8.83896 9.70505C8.80867 9.78675 8.79175 9.8391 8.72888 9.90077C8.69345 9.92895 8.67284 9.94546 8.62935 9.96242C8.52097 9.97373 8.48749 9.97208 8.40298 9.9026C8.34872 9.8579 8.32601 9.78373 8.30078 9.71866C8.33525 9.64481 8.39438 9.61507 8.46617 9.58927L8.47554 9.58594Z" fill="#7248DD"/>
<path d="M8.40332 9.90258C8.4186 9.76674 8.54825 9.71138 8.66263 9.77721C8.70915 9.80397 8.71942 9.85054 8.72922 9.90075C8.69379 9.92893 8.67318 9.94544 8.62969 9.96239C8.52131 9.97371 8.48784 9.97205 8.40332 9.90258Z" fill="#D7BDFA"/>
<path d="M8.88098 9.40393C8.93801 9.43932 9.04887 9.57634 9.05193 9.63952C9.04727 9.65926 9.04098 9.68992 9.03418 9.70774C9.00075 9.79594 8.85376 9.95536 8.75741 9.93882L8.74902 9.92963C8.88712 9.78569 8.90997 9.59615 8.88098 9.40393Z" fill="white"/>
<path d="M8.54063 9.35744C8.53767 9.36023 8.53471 9.36301 8.53175 9.36579C8.36142 9.46704 8.36028 9.10397 8.52215 9.18365C8.57164 9.208 8.60146 9.27039 8.56601 9.32822C8.54403 9.34417 8.55157 9.33424 8.54063 9.35744Z" fill="white"/>
<path d="M8.54004 9.35735C8.55098 9.33414 8.54344 9.34408 8.56542 9.32812C8.59785 9.34127 8.59241 9.3336 8.6106 9.35844C8.61203 9.38525 8.6151 9.37323 8.60124 9.39582C8.57817 9.40533 8.58977 9.40428 8.56515 9.39859C8.54815 9.38452 8.54764 9.37817 8.54004 9.35735Z" fill="#DDDBE8"/>
<path d="M6.80191 9.1947C7.01281 9.19992 6.99307 9.23487 7.1456 9.33944C7.17308 9.40672 7.20012 9.47791 7.21202 9.55029C7.2384 9.71063 7.2224 9.96023 7.05394 10.0341C7.00181 10.057 6.92743 10.0563 6.87101 10.0537C6.86126 10.0481 6.82318 10.0251 6.81526 10.0219C6.72409 10.0758 6.50825 9.88722 6.47235 9.80196C6.44096 9.73405 6.4351 9.70549 6.42578 9.63081C6.52159 9.63245 6.53535 9.43815 6.63526 9.42763C6.67632 9.30686 6.70313 9.26947 6.80191 9.1947Z" fill="#150167"/>
<path d="M6.42578 9.63079C6.52159 9.63243 6.53535 9.43813 6.63526 9.42761C6.58688 9.65368 6.63324 9.8745 6.81526 10.0219C6.72409 10.0758 6.50825 9.8872 6.47235 9.80194C6.44096 9.73403 6.4351 9.70547 6.42578 9.63079Z" fill="white"/>
<path d="M6.86509 9.67066C6.93049 9.81716 7.01566 9.80747 7.03298 9.64478C7.10553 9.66995 7.13897 9.6884 7.19071 9.7441C7.17664 9.81611 7.16609 9.86718 7.12503 9.92812C7.0402 10.0325 6.96286 10.0593 6.83883 9.99232C6.77058 9.95911 6.7358 9.89211 6.70215 9.82739C6.75081 9.7355 6.77817 9.71805 6.86509 9.67066Z" fill="#7248DD"/>
<path d="M6.83911 9.99236C6.82895 9.88271 6.88209 9.79179 7.00358 9.8161C7.06691 9.82877 7.09434 9.87545 7.12531 9.92816C7.04048 10.0326 6.96314 10.0594 6.83911 9.99236Z" fill="#D7BDFA"/>
<path d="M6.88002 9.27073C6.94606 9.26817 6.9821 9.28739 6.99061 9.3596C6.9935 9.38417 6.98299 9.43804 6.96753 9.4566L6.93354 9.45393C6.80631 9.47932 6.77633 9.33948 6.88002 9.27073Z" fill="white"/>
<path d="M6.36251 9.15405C6.38583 9.16379 6.41086 9.17939 6.43528 9.16765C6.4809 9.14571 6.51949 9.1114 6.56406 9.08765C6.7721 8.97682 7.04467 9.06111 7.15481 9.27505C7.16579 9.29637 7.18357 9.33805 7.17725 9.36124C7.15946 9.35488 7.15974 9.35298 7.14566 9.33936C6.99313 9.2348 7.01287 9.19985 6.80198 9.19462C6.7032 9.2694 6.67638 9.30678 6.63532 9.42755C6.53541 9.43807 6.52165 9.63237 6.42584 9.63073C6.43516 9.70541 6.44102 9.73397 6.47241 9.80188C6.42019 9.79582 6.30909 9.63519 6.26987 9.58782C6.29656 9.67723 6.32557 9.76591 6.35688 9.85372C6.38856 9.94262 6.42337 10.0277 6.44545 10.1197L6.40553 10.0913C6.33329 9.96735 6.23331 9.72854 6.24821 9.58377L6.19434 9.53896C6.22138 9.51798 6.23 9.5101 6.2531 9.48464C6.25166 9.48164 6.24589 9.4707 6.24641 9.46744C6.25557 9.40976 6.32536 9.19831 6.34717 9.1605L6.36031 9.16071L6.36251 9.15405Z" fill="black"/>
<path d="M6.80158 9.1947C6.7028 9.26947 6.67598 9.30686 6.63492 9.42763C6.53502 9.43815 6.52126 9.63245 6.42545 9.63081C6.4132 9.38459 6.57704 9.23084 6.80158 9.1947Z" fill="#DDDBE8"/>
<path d="M6.25281 9.48467C6.25138 9.48166 6.24561 9.47072 6.24613 9.46746C6.25529 9.40979 6.32508 9.19834 6.34689 9.16052L6.36003 9.16073C6.37851 9.17898 6.38728 9.18836 6.40823 9.20303C6.30316 9.34515 6.32268 9.36158 6.25281 9.48467Z" fill="#FEEDDE"/>
<path d="M8.16917 9.28098C8.15037 9.28866 8.15937 9.28896 8.14177 9.28532C8.13833 9.2525 8.1886 9.18854 8.18947 9.14473L8.17354 9.14613L8.17226 9.13908C8.30395 8.92913 8.60203 8.89941 8.81237 8.98315C8.88672 9.01275 8.94607 9.05534 9.02531 9.07436L9.01012 9.0952C9.02447 9.12092 9.06367 9.14288 9.08607 9.16878C9.11737 9.20499 9.14389 9.24352 9.17157 9.28264C9.19036 9.30981 9.20441 9.33048 9.22621 9.35565L9.24932 9.38139C9.24747 9.40117 9.24456 9.39762 9.22649 9.41561C9.21449 9.42566 9.19489 9.44114 9.18439 9.45161C9.17707 9.4803 9.16986 9.51357 9.1588 9.54052C9.1391 9.583 9.07764 9.69429 9.03471 9.7078C9.04152 9.68998 9.04781 9.65933 9.05247 9.63959C9.04941 9.5764 8.93854 9.43939 8.88152 9.40399C8.85484 9.28556 8.82672 9.23153 8.74358 9.14529C8.62258 9.09963 8.54987 9.09351 8.42567 9.12439C8.40309 9.14822 8.38016 9.17169 8.35689 9.19479C8.329 9.23359 8.31623 9.25422 8.29326 9.29634C8.26238 9.29133 8.2316 9.32844 8.17707 9.34289C8.17754 9.33543 8.17788 9.32798 8.17806 9.32052C8.17867 9.29178 8.18249 9.29529 8.16917 9.28098Z" fill="black"/>
<path d="M8.74316 9.14539C8.94965 9.23436 9.08134 9.39878 9.05205 9.63968C9.04899 9.5765 8.93813 9.43948 8.8811 9.40409C8.85442 9.28565 8.8263 9.23162 8.74316 9.14539Z" fill="#DDDBE8"/>
<path d="M8.16895 9.28104C8.18788 9.23853 8.28022 9.18737 8.32028 9.16406C8.32989 9.1858 8.3308 9.1805 8.35666 9.19486C8.32878 9.23366 8.31601 9.25429 8.29304 9.29641C8.26216 9.2914 8.23138 9.32851 8.17685 9.34296C8.17732 9.3355 8.17766 9.32805 8.17784 9.32059C8.17845 9.29185 8.18227 9.29536 8.16895 9.28104Z" fill="#DDDBE8"/>
<path d="M8.32031 9.16399C8.35405 9.14573 8.38916 9.13597 8.42548 9.12439C8.4029 9.14822 8.37997 9.17169 8.3567 9.19479C8.33083 9.18042 8.32992 9.18572 8.32031 9.16399Z" fill="#DDDBE8"/>
<path d="M6.28613 10.2061L6.28965 10.188C6.31105 10.1827 6.33853 10.1943 6.36304 10.2006C6.3627 10.2391 6.3606 10.2727 6.36781 10.3105C6.36933 10.2766 6.36868 10.2349 6.36899 10.2004C6.39531 10.2023 6.41534 10.2049 6.44143 10.209C6.44618 10.2966 6.47544 10.4073 6.54698 10.4569C7.23239 10.9317 8.57436 10.8915 9.1242 10.2742C9.13704 10.3137 9.13686 10.3145 9.16244 10.3443L9.15628 10.3639C9.1549 10.4191 9.14097 10.4711 9.13758 10.5278C9.04691 10.5933 9.00462 10.619 8.8984 10.6485C8.91432 10.6082 8.92137 10.5912 8.93063 10.5486C8.87766 10.5551 8.80492 10.6 8.75101 10.6194C8.63785 10.66 8.52583 10.7047 8.4094 10.7352C7.8853 10.872 7.35863 10.8236 6.84455 10.6687C6.76914 10.646 6.69317 10.6325 6.61975 10.6059C6.62673 10.6433 6.63315 10.6592 6.64618 10.6939C6.5269 10.6589 6.40874 10.5922 6.32604 10.4959C6.30737 10.4072 6.29695 10.2978 6.28613 10.2061Z" fill="black"/>
<path d="M6.28613 10.2061L6.28965 10.188C6.31105 10.1827 6.33853 10.1943 6.36304 10.2006C6.3627 10.2391 6.3606 10.2727 6.36781 10.3105C6.40559 10.4715 6.4825 10.537 6.61975 10.6059C6.62673 10.6433 6.63315 10.6592 6.64618 10.6939C6.5269 10.6589 6.40874 10.5922 6.32604 10.4959C6.30737 10.4072 6.29695 10.2978 6.28613 10.2061Z" fill="#7248DD"/>
<path d="M9.15631 10.3639C9.15493 10.4191 9.141 10.4711 9.13762 10.5278C9.04695 10.5932 9.00466 10.619 8.89844 10.6484C8.91435 10.6082 8.9214 10.5912 8.93067 10.5486C8.99859 10.5226 9.10944 10.421 9.15631 10.3639Z" fill="#7248DD"/>
<path d="M8.17747 9.34291C8.232 9.32846 8.26278 9.29135 8.29366 9.29636C8.24153 9.44265 8.23084 9.55642 8.26462 9.70943C8.28516 9.78351 8.30395 9.83569 8.35299 9.89653C8.35234 9.90378 8.35081 9.90693 8.34869 9.91396C8.17198 9.90601 8.09539 9.37779 8.17747 9.34291Z" fill="white"/>
<path d="M8.26465 9.70947L8.30144 9.71869C8.32667 9.78376 8.34938 9.85794 8.40363 9.90264C8.48815 9.97211 8.52162 9.97376 8.63001 9.96245L8.64825 9.97505C8.6679 9.97015 8.67665 9.96662 8.6971 9.96846C8.63425 10.0153 8.49729 9.99424 8.42668 9.97385C8.40486 9.94926 8.37612 9.92071 8.35302 9.89657C8.30397 9.83573 8.28518 9.78355 8.26465 9.70947Z" fill="#2D1587"/>
<path d="M7.54269 10.4428C7.49182 10.3698 7.42443 10.213 7.52771 10.1554C7.64755 10.0885 7.88101 10.0739 8.00347 10.1391C8.10646 10.3216 8.04421 10.5897 7.8089 10.5854C7.76177 10.5923 7.7137 10.5839 7.67148 10.5612C7.61148 10.5348 7.57194 10.5031 7.54269 10.4428Z" fill="url(#paint0_linear_36_935)"/>
<path d="M7.54269 10.4428C7.49182 10.3698 7.42443 10.213 7.52771 10.1554C7.64755 10.0885 7.88101 10.0739 8.00347 10.1391C8.10646 10.3216 8.04421 10.5897 7.8089 10.5854C7.81902 10.5781 7.81792 10.5778 7.82845 10.574C7.96688 10.5235 8.0193 10.437 8.00969 10.2883C7.95722 10.2593 7.8608 10.2186 7.80515 10.1953C7.75213 10.2015 7.6594 10.2147 7.63268 10.1599C7.59729 10.1699 7.54981 10.1775 7.53093 10.2134C7.4951 10.2814 7.55259 10.365 7.54585 10.4363C7.54607 10.4376 7.5463 10.4388 7.54652 10.4401L7.54269 10.4428Z" fill="black"/>
<path d="M7.89675 10.1453C7.92009 10.1502 7.94611 10.155 7.96863 10.1623C7.99334 10.2127 8.0015 10.2304 8.00923 10.2885C7.95676 10.2594 7.86034 10.2187 7.80469 10.1954C7.8394 10.1832 7.86865 10.1695 7.89675 10.1453Z" fill="#EF807F"/>
<path d="M7.63281 10.1599C7.73884 10.1311 7.79122 10.1294 7.89734 10.1452C7.86924 10.1695 7.84 10.1831 7.80528 10.1954C7.75227 10.2015 7.65953 10.2147 7.63281 10.1599Z" fill="#DDDBE8"/>
<path d="M7.54582 10.4402C7.57728 10.476 7.66293 10.5383 7.67078 10.5613C7.61078 10.5349 7.57124 10.5032 7.54199 10.4429L7.54582 10.4402Z" fill="#EF807F"/>
<path d="M8.71448 7.25903C8.83577 7.40282 8.89201 7.49289 8.96648 7.66301L9.04164 7.67869C9.04398 7.5879 9.05852 7.5066 9.12552 7.43965C9.17106 7.39444 9.23285 7.37083 9.29602 7.37446C9.35783 7.37736 9.41556 7.40704 9.45495 7.45616C9.5152 7.53039 9.51576 7.60181 9.51561 7.69093C9.58981 7.66808 9.66105 7.66671 9.73156 7.70421C9.78743 7.73369 9.82935 7.78516 9.84781 7.84693C9.86648 7.90958 9.85908 7.9774 9.82735 8.03423C9.7904 8.10139 9.74092 8.12853 9.67453 8.15559C9.86972 8.49183 9.48095 8.73214 9.28513 8.43317C9.23434 8.50031 9.21981 8.51832 9.15082 8.5629C9.19931 8.78988 9.22773 9.1241 9.22579 9.35571C9.20399 9.33054 9.18994 9.30987 9.17115 9.2827C9.14346 9.24358 9.11694 9.20505 9.08564 9.16884C9.06325 9.14294 9.02405 9.12098 9.0097 9.09526L9.02488 9.07442L9.03326 9.06282C8.71006 8.8864 8.52586 8.70041 8.30906 8.40139C8.21577 8.41886 8.17434 8.44664 8.08887 8.4734L8.09152 8.44651C8.09622 8.44508 8.18931 8.39616 8.21317 8.38594L8.28018 8.36284C8.29528 8.35241 8.31025 8.34177 8.32508 8.33093C8.35277 8.35463 8.42349 8.34636 8.46569 8.35181C8.53527 8.36017 8.60322 8.37942 8.66716 8.40889C8.54467 8.38338 8.49307 8.37872 8.36828 8.38953C8.52691 8.62207 8.72902 8.83926 8.97209 8.97923C9.03504 9.01548 9.09792 9.03566 9.16078 9.06712C9.14975 8.87807 9.13148 8.76367 9.09173 8.57948C8.83699 8.58647 8.76414 8.35648 8.88847 8.15722C8.80561 8.1261 8.74786 8.09809 8.70605 8.00949C8.67704 7.94783 8.67421 7.87654 8.69821 7.81264C8.73174 7.72316 8.80191 7.67697 8.89097 7.66189L8.90222 7.65993C8.90447 7.65957 8.90672 7.65922 8.90898 7.65886C8.84381 7.50852 8.79074 7.40403 8.71448 7.25903Z" fill="#412898"/>
<path d="M9.03333 9.06274C9.0828 9.08499 9.11413 9.09858 9.16539 9.11471C9.16766 9.17067 9.1696 9.22664 9.17121 9.28262C9.14353 9.2435 9.11701 9.20497 9.08571 9.16877C9.06331 9.14286 9.02412 9.1209 9.00977 9.09518L9.02495 9.07434L9.03333 9.06274Z" fill="#FEEDDE"/>
<path d="M9.27736 7.41016C9.46754 7.42068 9.49452 7.59845 9.46009 7.7559C9.54955 7.71263 9.63001 7.68857 9.7224 7.74495C9.76787 7.7722 9.80086 7.81707 9.814 7.86951C9.8271 7.92383 9.81734 7.98131 9.78712 8.02784C9.7418 8.09724 9.67935 8.116 9.60566 8.13185C9.72235 8.27143 9.73952 8.51089 9.50409 8.53002C9.43225 8.53587 9.35825 8.47176 9.32044 8.41672C9.309 8.40007 9.2932 8.36805 9.27731 8.35591L9.2718 8.36755C9.23391 8.4536 9.17422 8.52812 9.07723 8.53906C9.02297 8.54519 8.9687 8.52771 8.92751 8.49085C8.88938 8.45591 8.86681 8.40643 8.86505 8.35392C8.86162 8.26376 8.90463 8.19587 8.96111 8.13301C8.86113 8.11373 8.76853 8.07982 8.73119 7.97193C8.71343 7.92016 8.7164 7.86325 8.73944 7.81372C8.76173 7.7654 8.80192 7.72831 8.85102 7.71076C8.93593 7.67995 9.00795 7.70978 9.08272 7.74771C9.07048 7.58274 9.09351 7.44202 9.27736 7.41016Z" fill="white"/>
<path d="M9.25502 7.85256C9.3408 7.83677 9.42294 7.89502 9.43919 7.98314C9.45542 8.07127 9.39971 8.15643 9.31426 8.17408C9.25819 8.18567 9.20039 8.16534 9.16292 8.12088C9.12543 8.0764 9.11406 8.01463 9.1331 7.95912C9.15216 7.90361 9.19872 7.86292 9.25502 7.85256Z" fill="#AA89F6"/>
<path d="M9.2483 7.90599C9.30356 7.88719 9.36331 7.91724 9.38285 7.97367C9.40239 8.0301 9.37458 8.09227 9.32023 8.11368C9.28393 8.12798 9.24295 8.12092 9.21316 8.09523C9.18336 8.06956 9.16942 8.02927 9.17671 7.98998C9.18401 7.95069 9.21141 7.91855 9.2483 7.90599Z" fill="#D7BDFA"/>
<path d="M5.86576 7.14501C5.96613 7.12061 6.03281 7.00647 6.17356 7.02165C6.28805 7.034 6.33236 7.08266 6.36562 7.19851C6.43757 7.45807 6.13756 7.91051 5.8558 7.75215C5.80549 7.72386 5.76177 7.63004 5.75452 7.57328C5.73941 7.49197 5.76027 7.40453 5.75981 7.32594C5.78679 7.26367 5.82552 7.19915 5.86576 7.14501Z" fill="#D7BDFA"/>
<path d="M6.74869 7.81213C6.75187 7.84369 6.74813 7.85757 6.76467 7.88017C6.78119 7.88446 6.77884 7.88426 6.79609 7.88558C6.81826 8.31725 6.92865 8.83766 7.25291 9.13886C7.27699 9.16107 7.3019 9.18231 7.32758 9.20251C7.28306 9.0432 7.24954 8.92073 7.26067 8.75201C7.41228 8.98396 7.6457 9.21528 7.9217 9.27004C7.94368 9.2743 7.96577 9.27789 7.98796 9.2808C7.9159 9.04814 7.86448 8.77261 7.88 8.52746C7.90202 8.65827 7.92799 8.78834 7.95787 8.91747C8.03585 8.62073 8.06809 8.31322 8.05337 8.00619C8.07075 8.02094 8.0713 8.01926 8.0778 8.041C8.07656 8.00891 8.07383 7.97762 8.08706 7.94904C8.1088 7.99882 8.12029 8.05243 8.1435 8.09677L8.12846 8.12393C8.15644 8.15885 8.17055 8.19039 8.19447 8.2255C8.21564 8.26953 8.25287 8.32171 8.28087 8.3628L8.21386 8.3859C8.18999 8.39612 8.0969 8.44504 8.09221 8.44647L8.08955 8.47336C8.07807 8.56368 8.06228 8.65338 8.04222 8.74211C8.03634 8.76805 8.02116 8.83932 8.01055 8.86382C7.9305 9.04864 7.99479 9.13308 8.03059 9.31778C7.84903 9.31543 7.67207 9.23633 7.52878 9.12471C7.43994 9.14926 7.40612 9.02439 7.33713 9.02678L7.32838 9.03935C7.33537 9.08296 7.3836 9.2241 7.36852 9.25157C7.35316 9.25431 7.3541 9.25644 7.33767 9.24695C7.08132 9.09869 6.93354 8.77809 6.83841 8.51347C6.74955 8.4781 6.70479 8.48037 6.60997 8.48176L6.60938 8.47955C6.62896 8.46165 6.62501 8.45602 6.6186 8.43327L6.6347 8.43343L6.67325 8.35282C6.70073 8.2996 6.7287 8.24667 6.75719 8.19403L6.7771 8.17147C6.77574 8.13481 6.77316 8.10934 6.76874 8.07355L6.72773 8.08538C6.7656 7.99981 6.73584 7.91672 6.74869 7.81213Z" fill="url(#paint1_linear_36_935)"/>
<path d="M8.11359 8.27977L8.12041 8.13006L8.12805 8.1239C8.15602 8.15882 8.17014 8.19036 8.19406 8.22547C8.21523 8.2695 8.25246 8.32168 8.28046 8.36277L8.21345 8.38587C8.18958 8.39609 8.09649 8.44501 8.0918 8.44644C8.09755 8.42373 8.10049 8.38475 8.1031 8.36021L8.11359 8.27977Z" fill="#FDD7CC"/>
<path d="M8.11359 8.27979C8.16053 8.28981 8.19484 8.34339 8.21345 8.38588C8.18958 8.39611 8.09649 8.44502 8.0918 8.44646C8.09755 8.42374 8.10049 8.38477 8.1031 8.36023L8.11359 8.27979Z" fill="#FEEDDE"/>
<path d="M6.75627 8.19397C6.76717 8.25443 6.77767 8.32152 6.79716 8.37915C6.80517 8.40955 6.81269 8.43618 6.82229 8.46609L6.76342 8.44451L6.69598 8.43181C6.68194 8.43344 6.64933 8.43311 6.63379 8.43336L6.67233 8.35275C6.69981 8.29954 6.72779 8.24661 6.75627 8.19397Z" fill="#FDD7CC"/>
<path d="M6.69629 8.43191C6.70735 8.4104 6.71197 8.39547 6.7321 8.38327L6.75068 8.38086C6.77001 8.39681 6.772 8.42067 6.76373 8.44462L6.69629 8.43191Z" fill="white"/>
<path d="M8.08653 7.94897C8.10828 7.99875 8.11976 8.05236 8.14297 8.0967L8.12794 8.12386L8.1203 8.13002L8.11348 8.27973L8.10298 8.36017L8.08964 8.35648C8.07207 8.3161 8.07735 8.10145 8.07728 8.04093C8.07604 8.00884 8.07331 7.97755 8.08653 7.94897Z" fill="url(#paint2_linear_36_935)"/>
<path d="M7.29883 8.88232C7.3716 8.97742 7.43609 9.04839 7.52854 9.12475C7.4397 9.1493 7.40587 9.02443 7.33688 9.02682L7.32814 9.03939C7.3176 8.98719 7.30783 8.93483 7.29883 8.88232Z" fill="#FDD7CC"/>
<path d="M6.77675 8.17151C6.78394 8.21333 6.81381 8.34735 6.79772 8.37925C6.77823 8.32161 6.76773 8.25453 6.75684 8.19407L6.77675 8.17151Z" fill="#150167"/>
<path d="M10.0375 9.22009C10.0677 9.24819 10.0954 9.27542 10.1163 9.31204C10.1363 9.34688 10.1779 9.50937 10.1814 9.51237C10.1983 9.52667 10.1911 9.49023 10.2121 9.55457L10.1785 9.53101C10.1629 9.58111 10.1735 9.63051 10.1586 9.68393C10.144 9.73641 10.0814 9.8331 10.0718 9.87403C10.0467 9.90491 10.0271 9.93121 9.99733 9.95754C9.99074 9.92523 9.99098 9.92158 9.97081 9.89722L9.92141 9.94311C9.91231 9.92349 9.93101 9.81627 9.93519 9.78335C9.95811 9.60233 9.96395 9.42658 9.96515 9.24424L9.9957 9.25472L10.0375 9.22009Z" fill="#FEEDDE"/>
<path d="M10.0374 9.22009C10.0676 9.24819 10.0953 9.27542 10.1162 9.31204C10.1362 9.34688 10.1777 9.50937 10.1813 9.51237C10.1982 9.52667 10.191 9.49023 10.212 9.55457L10.1784 9.53101C10.1628 9.58111 10.1734 9.63051 10.1585 9.68393C10.1439 9.73641 10.0813 9.8331 10.0717 9.87403C10.0466 9.90491 10.027 9.93121 9.99722 9.95754C9.99063 9.92523 9.99087 9.92158 9.9707 9.89722C10.1378 9.72303 10.1872 9.43176 9.99559 9.25472L10.0374 9.22009Z" fill="#412898"/>
<path d="M6.58201 8.41821L6.59078 8.42022C6.60322 8.39874 6.61299 8.35919 6.62083 8.35681C6.62354 8.38915 6.63097 8.4092 6.61758 8.43321C6.62399 8.45596 6.62794 8.46159 6.60836 8.47949L6.60895 8.4817C6.5712 8.60107 6.35357 9.04689 6.35571 9.14283L6.36134 9.15405L6.35914 9.1607L6.346 9.16049C6.32419 9.19831 6.25439 9.40976 6.24523 9.46743C6.24472 9.47069 6.25049 9.48163 6.25192 9.48464C6.22883 9.5101 6.2202 9.51797 6.19316 9.53896L6.24703 9.58377C6.23214 9.72854 6.33212 9.96735 6.40436 10.0912C6.39072 10.0943 6.39615 10.0921 6.38757 10.0962L6.39095 10.1016C6.40194 10.1194 6.40512 10.1223 6.40742 10.1437C6.3648 10.1054 6.32198 10.0065 6.30083 9.95272C6.13929 9.54213 6.11228 9.0879 6.15703 8.65111C6.16441 8.57899 6.18613 8.43353 6.21147 8.37272C6.16854 8.70695 6.17279 9.04583 6.2241 9.3788C6.33014 9.08634 6.42237 8.78236 6.54839 8.49453C6.46674 8.51679 6.4269 8.53467 6.34989 8.56877C6.44406 8.46932 6.54129 8.47432 6.58201 8.41821Z" fill="#412898"/>
<path d="M9.99792 9.95753C10.0277 9.9312 10.0473 9.9049 10.0724 9.87402C10.0587 10.1875 9.99182 10.4474 9.78244 10.6797C9.78334 10.6055 9.77835 10.5199 9.75195 10.4498C9.7997 10.3623 9.83719 10.2707 9.86444 10.174C9.87725 10.1285 9.88049 10.0729 9.89706 10.0292C9.90063 10.0012 9.90329 9.96213 9.922 9.9431L9.9714 9.89721C9.99157 9.92156 9.99133 9.92522 9.99792 9.95753Z" fill="#AA89F6"/>
<path d="M9.97083 9.89722C9.991 9.92157 9.99075 9.92523 9.99734 9.95754C9.96227 9.98977 9.94065 10.0076 9.89648 10.0292C9.90006 10.0013 9.90271 9.96214 9.92143 9.94311L9.97083 9.89722Z" fill="#150167"/>
<path d="M9.858 8.64905C9.89579 8.75671 9.97617 9.05902 9.96216 9.17309C9.95602 9.19969 9.95135 9.2188 9.96559 9.24432C9.96439 9.42667 9.95855 9.60242 9.93563 9.78343C9.93145 9.81635 9.91275 9.92358 9.92186 9.9432C9.90314 9.96223 9.90049 10.0013 9.89691 10.0293C9.88035 10.073 9.8771 10.1286 9.86429 10.1741C9.83704 10.2708 9.79955 10.3624 9.7518 10.4499L9.7334 10.4097C9.91475 9.98311 9.93555 9.46483 9.89648 9.00604C9.8863 8.8864 9.86909 8.76859 9.858 8.64905Z" fill="url(#paint3_linear_36_935)"/>
<path d="M9.22652 9.41565C9.2139 9.70863 9.1772 9.89288 9.05884 10.1599C9.10147 10.1322 9.13648 10.1097 9.17629 10.0781C9.17916 10.1015 9.17912 10.1079 9.17857 10.1318C9.10264 10.177 9.06824 10.1933 8.98438 10.219C9.02176 10.1516 9.05131 10.0918 9.07917 10.0211C9.11125 9.93972 9.18991 9.61086 9.15884 9.54055C9.16989 9.51361 9.1771 9.48033 9.18442 9.45165C9.19492 9.44117 9.21452 9.4257 9.22652 9.41565Z" fill="#412898"/>
<path d="M9.17596 10.0781C9.29413 9.97572 9.36481 9.87573 9.44934 9.74243C9.41747 9.83971 9.38377 9.91366 9.32132 9.99511C9.28215 10.0462 9.24584 10.07 9.2401 10.1368C9.23983 10.1599 9.24156 10.2066 9.23427 10.226L9.23155 10.2677C9.1897 10.2921 9.18765 10.3046 9.16227 10.3444C9.13668 10.3145 9.13686 10.3137 9.12402 10.2742C9.13987 10.2501 9.15621 10.2264 9.17303 10.203C9.17628 10.1865 9.17907 10.1602 9.18142 10.1428L9.17824 10.1318C9.17879 10.1079 9.17882 10.1015 9.17596 10.0781Z" fill="#412898"/>
<path d="M9.17303 10.203C9.19189 10.1905 9.20984 10.1728 9.22752 10.1756C9.23785 10.2035 9.23072 10.2065 9.23427 10.226L9.23155 10.2677C9.1897 10.2921 9.18765 10.3046 9.16227 10.3444C9.13668 10.3145 9.13686 10.3137 9.12402 10.2742C9.13987 10.2501 9.15621 10.2264 9.17303 10.203Z" fill="#030226"/>
<path d="M9.18124 10.1428C9.18395 10.1146 9.19407 10.083 9.22645 10.0841C9.24384 10.1049 9.23804 10.1021 9.23992 10.1369C9.23965 10.1599 9.24138 10.2066 9.23408 10.226C9.23054 10.2065 9.23767 10.2035 9.22734 10.1756C9.20965 10.1728 9.19171 10.1905 9.17285 10.2031C9.17609 10.1865 9.17889 10.1602 9.18124 10.1428Z" fill="#150167"/>
<path d="M5.7832 9.62378C5.92675 9.88265 5.97612 9.94505 6.22574 10.0981C6.20667 10.1175 6.21134 10.122 6.21133 10.1513C6.19269 10.1457 6.1782 10.1396 6.16202 10.1289C5.95613 9.99346 5.84186 9.86522 5.7832 9.62378Z" fill="#412898"/>
<path d="M5.57259 8.35229C5.52312 8.56349 5.49013 8.81523 5.47174 9.03201C5.45788 9.04067 5.4273 9.06103 5.41406 9.06726C5.42881 8.80584 5.48391 8.59629 5.57259 8.35229Z" fill="#412898"/>
<path d="M8.10459 7.91504C8.17905 8.08662 8.2348 8.17495 8.32562 8.3309C8.31079 8.34174 8.29582 8.35238 8.28072 8.36281C8.25273 8.32172 8.2155 8.26954 8.19432 8.22551C8.1704 8.1904 8.15629 8.15886 8.12832 8.12394L8.14335 8.09678C8.12014 8.05244 8.10866 7.99883 8.08691 7.94905C8.09887 7.93229 8.09646 7.93486 8.10459 7.91504Z" fill="#2D1587"/>
<path d="M8.14296 8.09668C8.16614 8.13466 8.19389 8.17978 8.19393 8.22541C8.17002 8.1903 8.1559 8.15876 8.12793 8.12384L8.14296 8.09668Z" fill="#150167"/>
<path d="M6.21144 10.1513C6.21145 10.1221 6.20677 10.1175 6.22584 10.0981L6.23358 10.1024C6.2571 10.1281 6.25711 10.1361 6.27368 10.1645C6.28656 10.1865 6.27998 10.1926 6.28598 10.2061C6.2968 10.2978 6.30722 10.4072 6.32588 10.4959C6.30148 10.4764 6.29069 10.4752 6.2608 10.4692C6.23592 10.3526 6.22358 10.2689 6.21144 10.1513Z" fill="#150167"/>
<path d="M6.72771 8.08532L6.76871 8.07349C6.77313 8.10927 6.77572 8.13475 6.77708 8.17141L6.75717 8.19397C6.72868 8.24661 6.70071 8.29954 6.67323 8.35276L6.63468 8.43337L6.61858 8.43321C6.63197 8.4092 6.62454 8.38915 6.62183 8.35681C6.61399 8.35919 6.60422 8.39873 6.59178 8.42021L6.58301 8.41821C6.62094 8.31204 6.68339 8.19551 6.72771 8.08532Z" fill="#2D1587"/>
<path d="M6.67313 8.35276L6.66309 8.33236C6.6629 8.28481 6.74191 8.11115 6.76862 8.07349C6.77304 8.10927 6.77563 8.13475 6.77699 8.17141L6.75707 8.19397C6.72859 8.24661 6.70061 8.29954 6.67313 8.35276Z" fill="#150167"/>
<path d="M6.80459 7.41614L6.81787 7.43991C6.79934 7.60146 6.79193 7.72155 6.79503 7.8856C6.77778 7.88427 6.78014 7.88447 6.76361 7.88019C6.74707 7.85758 6.75082 7.84371 6.74764 7.81215C6.74214 7.70332 6.77781 7.52204 6.80459 7.41614Z" fill="#2D1587"/>
<path d="M9.16255 10.3444C9.18794 10.3046 9.18998 10.292 9.23183 10.2677C9.22168 10.3441 9.21256 10.4206 9.19765 10.4962C9.17863 10.5062 9.15602 10.5172 9.1377 10.5278C9.14108 10.4711 9.15501 10.4191 9.15639 10.3639L9.16255 10.3444Z" fill="#412898"/>
<path d="M7.04148 6.28735C7.12009 6.35667 7.20877 6.42384 7.30121 6.47211C7.16334 6.43022 7.08066 6.40536 6.9707 6.30582C7.00384 6.30139 7.01099 6.30072 7.04148 6.28735Z" fill="#412898"/>
<path d="M7.34375 6.18677C7.37516 6.18726 7.40633 6.18812 7.43773 6.18699C7.41486 6.19429 7.42235 6.18756 7.40786 6.20294C7.38569 6.27333 7.40156 6.36593 7.411 6.43941C7.3571 6.34946 7.34598 6.29013 7.34375 6.18677Z" fill="#412898"/>
<path d="M10.2607 8.68872C10.311 8.72882 10.3711 8.77975 10.4246 8.81295C10.4094 8.85052 10.4335 8.8944 10.4325 8.94465C10.3948 8.85105 10.318 8.79075 10.2607 8.68872Z" fill="#412898"/>
<path d="M8.05327 8.00613C8.04653 7.91253 8.04093 7.81986 8.0332 7.7262C8.05539 7.78977 8.0792 7.85271 8.10463 7.91496C8.0965 7.93478 8.09891 7.93221 8.08695 7.94898C8.07373 7.97755 8.07646 8.00885 8.0777 8.04093C8.07119 8.0192 8.07065 8.02088 8.05327 8.00613Z" fill="#2D1587"/>
<path d="M9.67898 10.2612C9.67559 10.3391 9.67085 10.4061 9.65536 10.4826L9.65011 10.4713C9.63298 10.4565 9.61269 10.4597 9.58887 10.459C9.62595 10.3877 9.64881 10.3362 9.67898 10.2612Z" fill="#2D1587"/>
<path d="M5.82465 10.3772C5.80548 10.3159 5.79801 10.2917 5.79492 10.2272L5.79934 10.2228C5.82078 10.2567 5.83775 10.2984 5.85424 10.3355C5.84411 10.3492 5.83425 10.3631 5.82465 10.3772Z" fill="#2D1587"/>
<path d="M9.96198 9.17297C9.99727 9.19042 10.0067 9.19581 10.0378 9.22006L9.99597 9.2547L9.96542 9.24421C9.95118 9.21869 9.95585 9.19958 9.96198 9.17297Z" fill="#2D1587"/>
<path d="M5.58792 9.86499C5.61133 9.91222 5.64511 9.97733 5.6627 10.0267C5.63227 9.99002 5.60418 9.94636 5.57812 9.91546C5.57906 9.90397 5.58534 9.87748 5.58792 9.86499Z" fill="#412898"/>
<path d="M6.84192 7.29749L6.81894 7.43993L6.80566 7.41616C6.81735 7.37526 6.82821 7.33779 6.84192 7.29749Z" fill="#2D1587"/>
<path d="M7.09627 7.44189C7.27661 7.44358 7.23974 7.75479 7.10646 7.82775C6.93706 7.83538 6.94849 7.52437 7.09627 7.44189Z" fill="#D7BDFA"/>
<path d="M6.53656 7.38745C6.68487 7.40573 6.61158 7.68168 6.48178 7.71131C6.33165 7.69169 6.39526 7.44827 6.53656 7.38745Z" fill="#D7BDFA"/>
<path d="M7.70804 7.59351C7.76254 7.61472 7.75704 7.67076 7.71992 7.70903C7.65669 7.67298 7.65422 7.64329 7.70804 7.59351Z" fill="#D7BDFA"/>
<path d="M7.47176 7.6073C7.5132 7.64064 7.51881 7.69024 7.47203 7.72285C7.44304 7.70309 7.43348 7.69864 7.42969 7.66213C7.4392 7.63431 7.44979 7.62815 7.47176 7.6073Z" fill="#D7BDFA"/>
<defs>
<linearGradient id="paint0_linear_36_935" x1="7.58792" y1="10.1579" x2="7.92033" y2="10.5064" gradientUnits="userSpaceOnUse">
<stop stop-color="#F98A89"/>
<stop offset="1" stop-color="#FFADA8"/>
</linearGradient>
<linearGradient id="paint1_linear_36_935" x1="7.4738" y1="8.00803" x2="7.25059" y2="9.21866" gradientUnits="userSpaceOnUse">
<stop stop-color="#321D87"/>
<stop offset="1" stop-color="#5235AB"/>
</linearGradient>
<linearGradient id="paint2_linear_36_935" x1="8.14868" y1="8.12208" x2="8.02493" y2="8.17059" gradientUnits="userSpaceOnUse">
<stop stop-color="#03003C"/>
<stop offset="1" stop-color="#1B0C6D"/>
</linearGradient>
<linearGradient id="paint3_linear_36_935" x1="9.79403" y1="9.56564" x2="9.94217" y2="9.57859" gradientUnits="userSpaceOnUse">
<stop stop-color="#2E168E"/>
<stop offset="1" stop-color="#5439A5"/>
</linearGradient>
</defs>
</svg>
