<svg width="256" height="256" viewBox="0 0 256 256" fill="none" xmlns="http://www.w3.org/2000/svg">
<path d="M122.965 10.0097C126.528 9.92421 130.083 10.4025 133.511 11.4285C139.91 13.3531 146.845 17.8892 150.136 24.1735C151.22 26.3149 152.116 28.9664 151.656 31.4093C151.613 32.0704 150.403 32.5723 149.924 32.2275C148.496 31.1532 147.252 29.9028 145.764 28.904C139.601 24.765 131.857 25.0369 125.508 28.7248C117.455 33.4025 112.75 41.4867 110.248 50.6024C145.928 43.3445 183.188 54.6532 205.522 85.7595C210.415 92.4547 214.383 99.8402 217.31 107.698C218.831 111.83 220.065 116.072 221 120.392C221.525 122.79 221.93 125.464 222.555 127.817C223.816 132.424 225.605 136.853 227.885 141.007C231.766 148.005 236.995 153.594 242.917 158.678C243.706 159.449 244.809 160.276 245.5 161.121C247.625 163.723 242.376 165.64 240.907 166.277C236.158 168.339 231.565 168.556 226.57 167.667C230.164 184.42 229.885 205.179 221.363 220.394C220.353 222.195 215.346 229.219 212.926 227.612C212.464 226.961 212.734 223.562 212.756 222.622C212.806 220.785 212.745 218.947 212.571 217.119C211.006 221.995 208.485 226.472 205.169 230.264C203.282 232.409 199.843 235.462 197.018 235.958C194.85 236.339 196.754 230.898 196.974 230.052C193.957 233.906 190.322 237.251 185.693 238.733C183.914 239.3 182.224 239.834 182.782 237.054C182.689 237.143 182.595 237.229 182.5 237.315C177.329 241.952 170.655 245.319 163.624 244.958C162.819 244.916 162.188 244.754 161.666 244.115C161.272 242.933 162.882 241.331 163.602 240.244C167.475 234.405 169.68 228.396 171.618 221.65C171.727 221.241 171.741 221.24 171.736 220.821C171.506 220.825 171.277 220.88 171.102 221.04C169.316 222.68 167.509 224.057 165.537 225.448C161.176 228.536 156.572 231.227 151.774 233.493C129.855 243.828 109.181 243.562 86.9255 234.714C87.7299 236.238 91.6094 240.615 88.2366 240.873C81.6461 241.375 75.9167 238.733 70.8147 234.592C70.787 236.59 70.9028 238.856 71.3162 240.81C71.6032 242.169 72.2176 243.653 72.3123 245.039C71.8229 246.253 70.1604 245.983 69.1088 245.956C58.9633 245.698 49.9422 239.561 44.3368 230.893C43.1549 229.064 42.21 227.188 41.2088 225.251C41.2462 229.553 42.0877 232.638 42.9579 236.737C43.0858 237.339 42.0465 237.644 41.491 237.538C37.8449 236.86 34.7872 233.987 32.524 231.065C26.2414 222.833 26.0603 211.928 27.5082 201.984C27.9249 199.123 28.5169 196.09 28.8186 193.251C26.9561 188.984 26.3327 185.143 26.1409 180.525C22.2277 183.726 16.7693 187.302 11.5117 186.558C9.21417 186.005 10.1135 183.25 10.5084 181.756C12.133 176.261 14.301 170.055 16.8806 164.958C23.4669 151.945 26.2521 139.139 30.1136 125.184C32.1614 117.602 34.9462 110.261 38.4242 103.277C49.707 81.0752 68.0674 63.3769 91.232 55.9653C87.6493 49.031 86.7692 41.9515 89.4411 34.4817C94.695 19.793 108.377 10.7547 122.965 10.0097Z" fill="#370AD8"/>
<path d="M123.19 13.6166C124.864 13.4837 127.887 13.8523 129.542 14.1728C136.24 15.4709 143.043 19.3867 146.943 25.3669C127.55 14.3827 108.022 34.4913 106.367 54.3821C106.09 57.7132 106.605 61.6317 108.806 64.2191C109.197 64.6792 109.475 65.1125 110.087 65.156C110.505 64.2132 109.369 61.0148 109.33 59.7305C109.276 57.9312 109.394 56.2074 109.524 54.4222C110.895 54.2305 112.654 53.8016 114.076 53.5458C116.711 53.0906 119.36 52.7256 122.018 52.4516C154.523 49.3257 186.767 62.9043 205.375 91.6525C207.949 95.5732 210.218 99.7051 212.159 104.008C214.482 109.313 216.295 114.847 217.569 120.529C218.014 122.483 218.244 124.556 218.712 126.476C222.577 142.245 229.764 151.93 241.376 162.05C234.63 165.405 228.466 165.665 221.715 162.136C220.863 161.69 218.918 160.033 218.389 160.668C218.326 162.306 221.605 165.328 222.865 166.191C224.29 172.252 225.156 178.441 225.454 184.675C225.993 196.903 223.854 213.254 215.744 222.601C215.751 222.135 215.753 221.669 215.753 221.203C215.739 218.022 214.619 207.51 212.584 205.386C211.692 205.327 211.476 209.138 211.289 210.05C209.612 218.25 206.187 225.753 199.721 230.903C200.014 229.094 200.798 221.888 199.467 220.615C198.783 220.63 198.055 222.521 197.644 223.282C194.906 228.354 191.561 232.127 186.69 234.931C186.855 234.407 187.282 232.495 187.413 232.225C188.03 230.947 189.225 229.445 190.043 228.234C191.005 226.777 191.911 225.282 192.76 223.751C196.748 216.396 199.662 207.752 201.36 199.511C202.12 199.167 202.858 198.771 203.569 198.325C208.396 195.28 212.155 190.113 213.45 184.347C215.397 175.676 211.886 165.959 203.058 163.786C202.97 161.898 201.747 151.317 199.867 151.004C199.455 151.849 200.232 157.475 200.354 158.825C202.467 182.13 200.414 208.107 187.015 227.673C182.019 234.968 174.825 240.315 166.271 241.589C172.889 231.072 176.043 219.042 177.436 206.634C177.602 205.158 179.703 202.699 178.949 201.897C178.551 201.919 176.832 203.525 176.319 203.931C174.142 205.654 172.281 206.605 169.638 207.295C176.314 197.917 178.647 187.148 178.947 175.626C179.852 175.114 182.038 173.706 182.115 172.571C181.63 171.95 180.054 172.122 178.914 171.944C178.923 169.291 177.944 151.142 175.411 150.863C174.576 151.906 175.889 160.591 175.918 162.917L175.92 163.195C164.573 157.142 155.99 149.237 147.775 139.173C149.102 139.14 150.429 139.155 151.755 139.217C153.145 139.291 155.974 139.84 157.05 139.475L157.143 139.265C156.471 138.471 154.446 137.96 153.409 137.641C150.598 136.865 148.624 136.652 145.779 136.601C142.249 131.801 138.979 126.796 135.984 121.61C135.225 120.286 132.332 114.175 131.351 114.274C130.983 114.952 130.896 120.761 130.834 121.958C130.56 127.387 130.17 132.809 129.666 138.221C128.743 147.542 127.292 156.011 125.591 165.159C124.587 162.424 124.077 159.63 123.548 156.77C123.427 156.115 123.209 154.794 122.584 154.544C121.802 155.3 122.117 159.06 122.226 160.133C122.694 164.751 124.128 169.062 126.109 173.186C113.816 168.083 103.286 157.577 99.3769 144.117C99.2467 143.669 99.2235 143.604 98.8559 143.431C97.122 144.405 99.6627 158.375 100.204 160.725C100.627 162.54 101.152 164.327 101.775 166.077L101.66 165.961C90.4518 154.621 84.2373 136.006 84.1352 119.834C84.1237 118.023 84.3074 116.195 84.279 114.351L84.0773 114.181C81.9665 114.37 81.4514 122.654 81.3888 124.502C75.2968 133.74 68.7328 146.094 64.9084 156.429C63.9685 158.945 63.1348 161.503 62.4093 164.096C61.9235 165.832 61.4911 167.93 60.9624 169.644C60.8747 169.827 60.6103 170.199 60.5925 170.419C60.309 173.889 59.7597 177.383 59.4498 180.85C58.7833 180.928 58.1567 180.908 57.6439 181.311C57.1515 182.364 58.6536 182.911 59.4022 183.314C59.3856 192.113 59.8365 198.239 64.6903 205.729C58.6988 204.418 53.6468 201.521 49.386 196.845C45.7712 192.879 45.7382 187.565 46.1074 182.426C46.1444 181.91 46.2278 181.189 45.8778 180.776L45.5965 180.797C45.1277 181.182 44.9572 181.501 44.7119 182.076C39.6493 193.933 47.9233 202.265 57.6695 207.032C57.5132 209.072 57.7568 212.955 57.8864 215.045C58.4807 224.634 60.1985 234.498 66.0815 242.203C53.7045 239.863 45.9959 230.487 41.8067 218.458C41.5446 217.705 41.4985 216.051 40.6589 215.974C39.8894 216.554 39.5776 218.128 39.2927 219.055C37.8877 223.625 38.08 228.197 38.9739 232.859C27.9586 224.551 29.3732 209.832 31.3115 197.509C32.5645 198.856 38.679 204.889 40.4745 203.55C40.4237 203.241 40.3949 203.078 40.1304 202.858C38.1097 201.175 36.4627 199.455 34.8866 197.272C30.4349 191.089 28.5025 183.306 29.514 175.63C29.6108 174.895 29.9935 172.869 29.6075 172.331C29.291 172.333 28.9895 172.542 28.7937 172.792C24.9451 177.698 19.8417 182.32 13.54 183.088C16.1845 172.185 22.7549 161.212 26.3926 150.427C29.2613 141.921 31.0456 133.76 33.4992 125.216C35.2729 118.975 37.5496 112.905 40.3049 107.07C51.8012 83.2166 69.3086 67.3723 93.4447 59.073C95.9676 61.9276 98.5308 63.9009 102.123 65.1452C102.687 65.3406 103.301 65.5441 103.803 65.2617L103.825 64.9292C103.47 64.4588 101.061 62.6688 100.443 62.1215C81.7709 45.5945 94.448 21.3042 114.651 15.0605C117.712 14.1145 120.025 13.8238 123.19 13.6166Z" fill="white"/>
<path d="M176.98 97.1253C183.085 96.7107 187.063 101.908 188.026 107.763C189.976 106.671 192.195 106.22 194.393 106.469C196.883 106.769 199.155 108.104 200.699 110.175C202.278 112.29 202.985 114.979 202.663 117.644C202.283 120.779 200.813 123 198.489 124.889C200.285 126.75 201.523 128.614 201.996 131.273C202.456 133.856 201.906 136.524 200.471 138.677C199.089 140.746 196.972 142.144 194.596 142.557C191.274 143.148 188.818 141.993 186.194 140.051C185.87 140.958 185.662 141.409 185.243 142.26C184.065 144.098 182.871 145.419 180.93 146.379C178.575 147.552 175.868 147.675 173.425 146.72C170.947 145.787 168.928 143.854 167.818 141.349C166.362 138.069 166.543 135.142 167.714 131.843C165.079 131.456 163.138 130.961 161.137 128.965C159.306 127.126 158.26 124.59 158.234 121.931C158.203 119.282 159.197 116.732 160.988 114.864C163.033 112.709 165.553 111.804 168.405 111.783C166.322 104.857 169.841 97.9063 176.98 97.1253Z" fill="#370AD8"/>
<path d="M176.774 100.106C181.644 99.8189 184.669 103.671 185.472 108.317C185.641 109.292 185.639 110.244 185.844 111.229C186.449 111.963 187.586 111.103 188.252 110.672C196.558 105.291 204.465 115.693 197.055 122.644C196.439 123.222 194.662 123.744 194.608 124.661C195.059 125.45 196.441 126.52 197.132 127.308C202.999 133.999 196.773 142.894 188.96 138.719C187.948 138.178 186.022 135.77 185.034 135.704C184.567 136.008 184.719 135.882 184.468 136.507C183.421 141.064 180.436 145.589 175.288 144.341C173.349 143.86 171.672 142.588 170.63 140.806C169.32 138.523 169.242 135.424 170.052 132.931C170.406 131.842 170.937 130.863 171.214 129.728C170.903 129.311 169.947 129.27 169.452 129.284C158.879 129.585 157.756 115.128 168.593 114.478C169.581 114.419 171.315 115.039 171.907 114.253C171.805 112.99 170.901 111.522 170.684 110.23C169.855 105.292 171.945 101.231 176.774 100.106Z" fill="white"/>
<path d="M180.985 117.169C183.99 116.622 186.853 118.716 187.403 121.863C187.953 125.009 185.985 128.033 182.991 128.641C179.956 129.256 177.026 127.156 176.468 123.967C175.91 120.777 177.94 117.723 180.985 117.169Z" fill="#370AD8"/>
<path d="M181.428 119.584C182.364 119.436 183.314 119.723 184.031 120.371C184.747 121.018 185.159 121.961 185.158 122.954C185.157 124.68 183.924 126.132 182.29 126.333C180.531 126.549 178.931 125.245 178.696 123.403C178.461 121.561 179.677 119.861 181.428 119.584Z" fill="white"/>
<path d="M131.758 142.92C136.059 140.639 139.667 139.969 144.328 139.365C150.845 147.678 157.313 154.075 165.878 160.105L165.648 160.334C155.67 154.472 143.726 155.894 135.81 164.741C135.232 165.388 133.858 166.788 133.736 167.666C134.414 167.869 135.659 166.607 136.238 166.143C134.88 168.733 134.022 171.122 133.486 174.033L133.648 174.372L133.955 174.473C134.685 174.001 135.463 172.079 136.066 171.279C139.492 166.73 144.366 163.763 149.824 163.146C145.917 164.874 143.509 167.591 141.936 171.756C139.624 177.817 139.839 184.489 142.032 190.445C144.477 197.086 151.291 201.628 157.743 198.286C166.171 193.921 167.383 178.701 163.543 170.773C161.982 167.551 160.225 165.558 157.354 163.842C165.506 166.282 174.347 174.579 172.266 184.431C172.133 185.063 171.824 186.064 172.31 186.439C173.84 186.025 175.796 180.607 176.381 178.969C176.015 185.935 174.071 194.64 171.069 200.83C170.466 202.09 169.785 203.308 169.029 204.475C168.371 205.502 166.706 207.68 166.059 208.858C166.129 208.981 166.199 209.103 166.269 209.226C168.033 210.297 172.561 208.847 174.337 208.103C174.04 210.063 173.728 212.02 173.399 213.975C171.758 215.921 168.136 219.103 166.085 220.706C153.916 230.074 138.094 236.7 122.92 237.58C106.36 238.539 86.7361 233.65 73.6695 222.498C69.1772 218.665 68.834 214.555 68.6939 208.904C69.0668 208.626 69.3308 208.506 69.4625 208.057C69.3967 207.028 68.373 206.173 67.9284 205.28C67.7883 205 67.5768 204.28 67.4681 203.947L63.9353 193.077C62.8235 189.605 62.0317 188.118 62.0676 184.365L63.9041 185.178C64.9957 187.529 66.1052 189.36 67.9258 191.162C68.4198 191.651 69.246 192.684 69.968 192.621C70.083 192.499 70.2578 192.405 70.1772 192.222C67.4962 186.119 67.1783 179.781 71.2487 173.87C73.4907 170.631 76.8516 168.44 80.6132 167.766C82.5414 167.44 83.874 167.588 85.7876 167.764C82.4659 169.025 80.5291 170.765 79.0285 174.206C76.6068 179.859 76.6485 186.535 78.7265 192.283C80.1965 196.35 82.7264 200.236 86.6005 202.038C91.7852 204.451 96.6936 201.878 98.6821 196.429C100.867 190.444 100.493 184.108 98.7505 178.051C98.3329 176.626 98.1801 175.303 97.5919 173.905C95.5199 168.98 92.0492 165.172 87.2384 163.2C82.8389 161.397 78.1835 161.38 73.8358 163.362C71.1725 164.576 69.2034 166.312 67.4257 168.701C66.892 169.419 66.1295 170.629 65.6139 171.227L63.5436 171.425C64.9037 164.222 67.2907 157.497 70.2194 150.837C70.8221 149.466 71.872 146.993 72.6088 145.748C77.0216 143.711 80.3982 142.879 85.2634 143.224C87.7526 149.886 91.1729 157.497 95.6389 162.987C96.3836 163.746 97.7721 165.359 98.4359 166.224C99.4022 167.303 103.804 171.336 105.109 170.526C105.37 169.642 104.489 168.064 104.193 167.176C103.018 163.655 102.482 160.007 101.794 156.366C107.966 165.132 115.07 171.407 125.04 175.229C126.065 175.622 128.501 176.567 129.415 176.102C129.457 175.992 129.498 175.881 129.539 175.771C128.724 173.61 127.47 171.376 126.768 169.185C128.999 161.508 130.857 150.834 131.758 142.92Z" fill="white"/>
<path d="M98.3439 166.533L98.5299 166.76L98.4406 167.02C98.3106 167.087 98.1804 167.154 98.0504 167.221C97.0178 166.56 95.1718 164.637 94.2564 163.892C91.268 161.46 88.8236 161.302 85.4039 160.195L85.3145 159.968C85.8162 159.175 86.9875 159.594 87.7769 159.756C90.5449 160.327 93.299 161.271 95.5075 163.17L95.638 162.987C96.3827 163.746 97.7711 165.359 98.435 166.224L98.3439 166.533Z" fill="#370AD8"/>
<path d="M95.6393 162.987C96.384 163.746 97.7724 165.358 98.4363 166.224L98.3451 166.532C97.8185 166.031 95.9857 163.802 95.5088 163.17L95.6393 162.987Z" fill="#7B49EF"/>
<path d="M122.999 207.438C125.795 207.242 131.116 207.265 133.672 208.466C134.47 208.881 134.978 209.909 135.19 210.746C137.013 217.919 134.606 226.49 127.196 228.708C124.535 229.507 120.417 229.652 117.939 228.234L117.935 228.02C118.837 227.906 119.814 228.17 120.716 228.27C126.592 228.932 131.978 225.38 133.275 219.191C133.776 216.804 133.819 213.513 132.694 211.281C132.173 210.247 130.001 209.886 128.98 209.674C124.99 209.053 122.459 209.665 118.675 209.987C108.389 210.862 108.188 219.88 114.849 225.792C115.669 226.52 116.797 227.151 117.697 227.892L117.689 228.106L117.409 228.216C111.864 227.667 107.543 219.626 106.854 214.404C106.401 210.969 109.069 210.53 111.592 209.609C115.249 208.275 119.165 207.729 122.999 207.438Z" fill="#370AD8"/>
<path d="M141.884 156.231C142.359 156.185 142.648 156.133 142.96 156.512C142.886 156.762 142.879 156.886 142.603 156.993C139.192 158.312 136.769 159.893 134.251 162.632C134.023 162.803 133.938 162.763 133.613 162.819L133.964 162.757L133.559 162.625L133.526 162.538C133.539 162.246 133.543 162.209 133.676 161.942C135.217 158.854 138.859 157.238 141.884 156.231Z" fill="#370AD8"/>
<path d="M78.298 207.15C78.7184 207.183 78.7029 207.155 79.0292 207.425C79.2174 208.336 78.4373 209.284 77.9233 210.151C77.7625 210.185 77.5317 210.173 77.3578 210.174L77.1219 209.928C77.0671 209.054 77.8475 207.915 78.298 207.15Z" fill="#370AD8"/>
<path d="M159.369 203.387C159.934 203.462 159.958 203.479 160.112 203.974C159.946 204.91 159.362 205.742 158.871 206.558C157.38 205.941 158.771 204.282 159.369 203.387Z" fill="#370AD8"/>
<path d="M162.273 203.379C163.778 204.021 162.257 205.694 161.624 206.567C160.234 206.049 161.732 204.124 162.273 203.379Z" fill="#370AD8"/>
<path d="M156.494 203.393L156.894 203.463C157.676 204.118 156.416 205.791 155.997 206.533C155.455 206.398 155.444 206.359 155.287 205.884C155.426 204.875 155.937 204.217 156.494 203.393Z" fill="#370AD8"/>
<path d="M81.1451 207.112C82.651 207.527 81.186 209.438 80.7107 210.283C80.3334 210.24 80.3582 210.252 80.0614 210.004C79.8538 209.088 80.6732 207.955 81.1451 207.112Z" fill="#370AD8"/>
<path d="M83.7323 207.274C84.1522 207.372 84.1499 207.335 84.4296 207.666C84.5978 208.53 83.8842 209.466 83.432 210.245C83.0606 210.233 83.0858 210.242 82.7701 210.037C82.5372 209.111 83.2506 208.164 83.7323 207.274Z" fill="#370AD8"/>
<path d="M60.4268 208.066C62.3903 208.687 63.4751 208.943 65.4962 209.094C65.4768 212.039 65.5586 214.936 66.4717 217.755C68.7657 224.838 76.9576 229.701 83.0219 232.856C83.5905 234.874 84.0398 235.754 85.0876 237.548C81.8418 237.189 79.7913 236.393 76.8854 234.906C73.3484 233.016 72.3859 231.325 69.542 229.094C67.5333 229.61 67.9367 238.047 68.1374 239.895C61.8674 231.143 60.5762 218.746 60.4268 208.066Z" fill="white"/>
<path d="M157.179 182.402C160.177 183.804 161.206 185.918 161.941 189.055C159.783 196.404 153.465 200.461 147.293 194.708C146.43 193.68 146.042 193.154 145.339 192.006C145.332 188.111 145.583 185.843 148.981 183.45C149.574 186.247 151.261 190.943 155.063 188.231C156.654 187.095 157.013 184.339 157.179 182.402Z" fill="white"/>
<path d="M203.428 167.531C208.149 169.235 210.421 173.878 210.733 178.905C211.024 183.605 209.136 188.12 206.208 191.609C204.682 193.302 203.838 194.009 202.063 195.364C203.447 185.369 203.851 177.698 203.428 167.531Z" fill="white"/>
<path d="M93.849 186.768C96.0083 187.765 96.8915 189.335 97.6746 191.546C96.8521 198.864 91.7409 204.568 85.227 198.347C82.2815 194.869 83.4179 190.808 86.5407 187.966C87.0491 190.531 88.9824 194.94 92.3242 192.274C93.6733 191.198 93.8188 188.5 93.849 186.768Z" fill="white"/>
<path d="M133.352 123.069C133.866 123.566 136.386 127.907 136.929 128.78C138.623 131.528 140.421 134.205 142.318 136.803C140.837 137.019 139.89 137.179 138.426 137.544C135.698 138.328 134.282 138.948 132.086 140.732C132.405 134.79 133.315 129.336 133.352 123.069Z" fill="white"/>
<path d="M149.956 165.875C155.763 165.073 156.422 174.097 150.884 176.054C144.533 176.48 144.803 168.178 149.956 165.875Z" fill="white"/>
<path d="M87.9154 170.391C89.7334 170.442 91.1738 171.436 91.7888 173.263C92.2905 174.77 92.1835 176.426 91.4924 177.848C90.7414 179.4 89.7761 180.121 88.2436 180.618C82.275 180.717 82.3427 171.814 87.9154 170.391Z" fill="white"/>
<path d="M81.7248 129.116C81.8878 129.692 82.0422 130.583 82.1434 131.187C82.6798 134.393 83.4878 137.398 84.3702 140.515C81.0595 140.41 79.4022 140.78 76.2517 141.958C75.5171 142.28 74.6613 142.727 73.9316 143.088C76.3288 138.31 78.9292 133.648 81.7248 129.116Z" fill="white"/>
<path d="M165.878 160.104C169.19 162.252 172.771 164.549 176.282 166.319C176.325 167.78 176.396 169.318 176.407 170.773C174.825 169.459 174.21 168.022 172.93 166.487C170.761 163.885 168.403 162.132 165.647 160.334L165.878 160.104Z" fill="url(#paint0_linear_36_904)"/>
<path d="M63.1126 173.184L64.8918 173.301C64.051 175.075 63.5115 176.835 62.8929 178.7C62.7052 179.059 62.7284 179.101 62.4014 179.301C62.0788 178.577 62.9137 174.309 63.1126 173.184Z" fill="white"/>
<defs>
<linearGradient id="paint0_linear_36_904" x1="168.01" y1="166.273" x2="175.486" y2="164.678" gradientUnits="userSpaceOnUse">
<stop stop-color="#F0EAFD"/>
<stop offset="1" stop-color="white"/>
</linearGradient>
</defs>
</svg>
