<svg width="626" height="763" viewBox="0 0 626 763" fill="none" xmlns="http://www.w3.org/2000/svg">
<path d="M364.663 3.62574C374.996 7.42574 384.163 13.1824 392.163 20.8957L396.583 25.7057C406.476 37.8324 411.943 51.7557 412.983 67.4757C412.987 67.5236 413.004 67.5696 413.031 67.6091C413.059 67.6487 413.096 67.6806 413.139 67.7017C413.182 67.7228 413.23 67.7324 413.278 67.7296C413.326 67.7268 413.372 67.7117 413.413 67.6857C420.586 62.8857 428.363 59.3457 436.743 57.0657C446.036 55.3191 454.493 54.9224 462.113 55.8757C477.733 57.8424 491.309 64.6924 502.843 76.4257C516.163 89.9791 522.809 106.269 522.783 125.296C522.763 138.736 522.736 148.602 522.703 154.896C522.703 154.976 522.725 155.055 522.766 155.124C522.807 155.194 522.865 155.25 522.936 155.289C523.006 155.328 523.086 155.347 523.166 155.345C523.246 155.343 523.325 155.319 523.393 155.276C530.606 150.562 538.186 147.512 546.133 146.126C563.913 143.036 581.523 146.076 596.623 156.146C604.476 161.579 610.869 168.339 615.803 176.426C623.533 189.276 626.053 202.776 625.623 217.606L625.513 262.116L625.503 301.376L625.403 343.596L625.293 382.616L625.163 422.826L624.983 466.686L624.943 504.116C625.263 518.656 624.413 533.119 622.393 547.506C620.333 560.546 617.476 573.379 613.823 586.006C605.229 615.659 591.646 642.832 573.073 667.526L558.053 685.516C550.579 693.549 542.599 701.046 534.113 708.006L524.553 715.566C512.199 724.512 499.886 731.902 487.613 737.736C471.886 745.202 454.809 751.142 436.383 755.556C423.509 758.309 410.513 760.242 397.393 761.356C382.753 762.449 368.073 762.846 353.353 762.546C341.399 762.266 329.426 761.469 317.433 760.156C302.459 758.582 287.679 755.732 273.093 751.606L266.103 749.496C256.136 746.229 246.329 742.379 236.683 737.946C226.096 732.799 216.916 727.686 209.143 722.606C192.316 711.592 177.223 698.456 163.863 683.196C157.903 676.382 148.596 663.746 135.943 645.286C121.903 624.792 107.896 604.266 93.9228 583.706L73.4828 553.786L67.9928 545.726L12.2928 464.556C5.00613 452.982 0.95948 440.386 0.152813 426.766C-0.787187 411.819 2.60948 397.826 10.3428 384.786C16.5161 374.526 24.8195 366.279 35.2528 360.046C60.8528 344.536 93.2128 346.746 117.473 363.596C121.119 366.122 124.196 368.792 126.703 371.606C131.263 376.706 134.913 380.356 139.323 385.576C144.716 391.942 150.159 398.126 155.653 404.126C155.683 404.158 155.722 404.18 155.765 404.189C155.808 404.199 155.853 404.196 155.894 404.179C155.934 404.163 155.97 404.135 155.994 404.099C156.019 404.063 156.033 404.02 156.033 403.976L155.583 342.806L155.133 303.856L154.723 262.866L154.303 222.786L153.953 182.566L153.603 140.526C153.293 110.756 168.793 84.1257 195.933 71.6357C205.819 67.1424 215.819 64.9724 225.933 65.1257C227.686 65.1524 230.999 65.4391 235.873 65.9858C247.273 67.2558 258.113 71.7657 267.493 78.1657C267.529 78.1918 267.572 78.2072 267.616 78.2103C267.661 78.2134 267.705 78.204 267.745 78.1832C267.784 78.1625 267.817 78.1311 267.84 78.0927C267.862 78.0543 267.874 78.0103 267.873 77.9657C266.993 48.3257 281.183 21.6158 307.893 7.77575C310.293 6.66242 312.676 5.67242 315.043 4.80575C331.363 -1.18092 347.903 -1.57426 364.663 3.62574ZM183.113 462.516C178.003 467.736 169.443 467.506 164.583 461.906C144.403 438.666 125.379 416.522 107.513 395.476C93.6228 379.116 70.6528 374.236 51.6828 385.066C38.2728 392.716 30.0428 406.586 30.0728 421.846C30.0795 427.432 31.0028 433.006 32.8428 438.566C33.8628 441.632 37.0561 447.072 42.4228 454.886C88.1228 521.386 119.103 566.632 135.363 590.626C156.709 622.132 169.549 640.882 173.883 646.876C205.129 690.109 247.316 716.846 300.443 727.086C315.169 729.926 329.833 731.589 344.433 732.076C383.153 733.376 422.523 731.656 458.943 717.406C489.409 705.492 515.179 687.879 536.253 664.566C556.753 641.879 572.053 615.936 582.153 586.736C590.813 561.682 595.176 534.626 595.243 505.566C595.429 421.939 595.693 338.606 596.033 255.566C596.033 255.126 596.033 243.622 596.033 221.056C596.033 211.422 595.506 204.842 594.453 201.316C589.363 184.226 572.843 173.086 554.973 175.186C540.583 176.866 529.713 185.326 524.433 198.786C522.253 204.346 521.973 209.576 521.973 216.076C522.019 292.542 522.006 335.809 521.933 345.876C521.863 356.406 509.453 362.236 500.593 357.716C497.679 356.229 495.533 354.056 494.153 351.196C493.379 349.589 492.993 346.546 492.993 342.066C492.993 284.332 492.993 214.486 492.993 132.526C492.999 124.706 492.619 119.269 491.853 116.216C488.433 102.496 478.913 92.0258 465.603 87.3558C444.073 79.8058 420.453 92.6357 414.093 114.406C412.973 118.239 412.469 123.899 412.583 131.386C412.636 134.832 412.649 195.316 412.623 312.836C412.623 316.796 412.276 319.639 411.583 321.366C406.733 333.476 389.413 334.036 384.163 322.106C383.543 320.706 383.236 317.962 383.243 313.876C383.276 254.989 383.296 176.396 383.303 78.0957C383.303 71.4891 383.059 66.9857 382.573 64.5857C379.613 50.0257 369.333 37.6357 355.603 32.6157C338.593 26.4057 319.553 31.3657 308.073 45.3457C303.866 50.4657 300.869 56.6091 299.083 63.7757C298.409 66.4491 298.073 69.7124 298.073 73.5657C298.033 168.726 297.986 244.969 297.933 302.296C297.926 306.516 297.699 309.332 297.253 310.746C293.193 323.466 276.173 325.346 269.653 313.796C268.113 311.066 267.973 308.246 267.983 304.816C268.009 288.216 268.016 234.799 268.003 144.566C268.003 132.926 267.203 123.436 260.473 113.816C249.503 98.1357 230.773 91.4258 212.503 97.5158C195.553 103.156 183.673 119.706 183.683 137.326C183.696 146.106 183.729 152.769 183.783 157.316C184.733 240.526 185.223 354.606 186.653 447.596C186.753 454.136 187.063 458.476 183.113 462.516Z" fill="black"/>
<path d="M183.04 460.538C186.99 456.498 186.68 452.158 186.58 445.618C185.15 352.628 184.66 238.548 183.71 155.338C183.657 150.791 183.623 144.128 183.61 135.348C183.6 117.728 195.48 101.178 212.43 95.5375C230.7 89.4475 249.43 96.1575 260.4 111.838C267.13 121.458 267.93 130.948 267.93 142.588C267.943 232.821 267.937 286.237 267.91 302.837C267.9 306.267 268.04 309.087 269.58 311.817C276.1 323.367 293.12 321.487 297.18 308.767C297.627 307.354 297.853 304.537 297.86 300.317C297.913 242.991 297.96 166.748 298 71.5875C298 67.7342 298.337 64.4708 299.01 61.7975C300.797 54.6308 303.793 48.4875 308 43.3675C319.48 29.3875 338.52 24.4275 355.53 30.6375C369.26 35.6575 379.54 48.0475 382.5 62.6075C382.987 65.0075 383.23 69.5108 383.23 76.1175C383.223 174.418 383.203 253.011 383.17 311.897C383.163 315.984 383.47 318.727 384.09 320.127C389.34 332.057 406.66 331.497 411.51 319.387C412.203 317.661 412.55 314.818 412.55 310.858C412.577 193.338 412.563 132.854 412.51 129.408C412.397 121.921 412.9 116.261 414.02 112.427C420.38 90.6575 444 77.8275 465.53 85.3775C478.84 90.0475 488.36 100.517 491.78 114.237C492.547 117.291 492.927 122.727 492.92 130.547C492.92 212.507 492.92 282.354 492.92 340.087C492.92 344.567 493.307 347.611 494.08 349.217C495.46 352.077 497.607 354.251 500.52 355.738C509.38 360.258 521.79 354.427 521.86 343.897C521.933 333.831 521.947 290.564 521.9 214.098C521.9 207.598 522.18 202.368 524.36 196.808C529.64 183.348 540.51 174.888 554.9 173.208C572.77 171.108 589.29 182.248 594.38 199.338C595.433 202.864 595.96 209.444 595.96 219.077C595.96 241.644 595.96 253.148 595.96 253.588C595.62 336.628 595.357 419.961 595.17 503.587C595.103 532.647 590.74 559.704 582.08 584.758C571.98 613.958 556.68 639.901 536.18 662.588C515.107 685.901 489.337 703.514 458.87 715.428C422.45 729.678 383.08 731.398 344.36 730.098C329.76 729.611 315.097 727.948 300.37 725.108C247.243 714.868 205.057 688.131 173.81 644.898C169.477 638.904 156.637 620.154 135.29 588.648C119.03 564.654 88.0501 519.408 42.3501 452.908C36.9834 445.094 33.7901 439.654 32.7701 436.587C30.9301 431.027 30.0067 425.454 30.0001 419.868C29.9701 404.608 38.2001 390.737 51.6101 383.087C70.5801 372.257 93.5501 377.137 107.44 393.497C125.307 414.544 144.33 436.688 164.51 459.928C169.37 465.528 177.93 465.758 183.04 460.538Z" fill="white"/>
</svg>
